<svg xmlns="http://www.w3.org/2000/svg" xmlns:xlink="http://www.w3.org/1999/xlink" id="Layer_1" x="0" y="0" enable-background="new 0 0 22 24" version="1.1" viewBox="0 0 22 24" xml:space="preserve"><style type="text/css">.st0{fill:#bac4cb}.st1,.st2{fill:none;stroke:#bac4cb;stroke-width:2;stroke-linecap:round;stroke-linejoin:round;stroke-miterlimit:10}.st2{stroke-width:1.5}</style><path d="M-1.8,17.9C-1.8,17.9-1.8,17.9-1.8,17.9c0,0.2,0,0.4-0.1,0.6C-2.1,18.8-2.4,19-2.7,19c0,0,0,0-0.1,0l-9.5,4.9	c-0.2,0.1-0.3,0.1-0.5,0.1c0,0,0,0,0,0c0,0,0,0,0,0c-0.1,0-0.1,0-0.2,0c0,0,0,0-0.1,0c-0.1,0-0.2,0-0.3-0.1l-9.4-4.9c0,0,0,0,0,0	c0,0-0.1,0-0.1,0c-0.3,0-0.6-0.2-0.8-0.5c-0.1-0.2-0.1-0.4-0.1-0.5c0,0,0,0,0,0v0c0,0,0-0.1,0-0.1V6.2c0,0,0-0.1,0-0.1v0l0,0	c0,0,0-0.1,0-0.1c0-0.2,0-0.3,0.1-0.5c0.1-0.1,0.2-0.3,0.4-0.3c0.1,0,0.1-0.1,0.2-0.1c0,0,0.1,0,0.1,0c0.1,0,0.1,0,0.2,0l9.5-4.9	C-13.2,0-13,0-12.9,0c0,0,0,0,0.1,0s0,0,0.1,0c0.2,0,0.3,0,0.5,0.1L-2.7,5c0.2,0,0.3,0.1,0.5,0.2c0,0,0,0,0.1,0c0,0,0.1,0.1,0.1,0.1	c0,0,0.1,0.1,0.1,0.1c0.1,0.1,0.1,0.2,0.1,0.3c0,0.1,0,0.2,0,0.3v11.7C-1.8,17.8-1.8,17.9-1.8,17.9L-1.8,17.9L-1.8,17.9z M-21.8,16.2l1.6-1c0.4-0.3,1-0.1,1.3,0.4s0.1,1.1-0.3,1.4l-1.6,1l7,3.6v-8.6l-1.6,1c-0.4,0.3-1,0.1-1.3-0.4	c-0.3-0.5-0.1-1.1,0.3-1.4l1.6-1l-7-3.6V16.2z M-11.8,2.5V4c0,0.6-0.4,1-1,1s-1-0.4-1-1V2.5L-20.6,6l6.8,3.5V8c0-0.6,0.4-1,1-1	s1,0.4,1,1v1.5L-5,6L-11.8,2.5z M-3.8,7.5l-7,3.6l1.6,1c0.4,0.3,0.6,0.9,0.3,1.4s-0.8,0.6-1.3,0.4l-1.6-1v8.7l7-3.6l-1.6-1	C-6.8,16.6-7,16-6.7,15.5s0.8-0.6,1.3-0.4l1.6,1C-3.8,16.2-3.8,7.5-3.8,7.5z" class="st0"/><polygon points="41.7 21.4 26 21.4 26 1.8 38.3 1.8 40 3.5 41.7 5.2" class="st1"/><polyline points="41.6 7.4 34.8 8.6 34.9 2" class="st1"/><line x1="29" x2="38.6" y1="11.9" y2="11.9" class="st2"/><line x1="29" x2="38.6" y1="15" y2="15" class="st2"/><line x1="29" x2="38.6" y1="18.2" y2="18.2" class="st2"/><circle cx="10.9" cy="11.3" r="9.3" class="st1"/><line x1="10.9" x2="10.9" y1="2" y2="4.8" class="st1"/><line x1="10.9" x2="10.9" y1="17.6" y2="20.4" class="st1"/><line x1="20" x2="17.6" y1="11.3" y2="11.3" class="st1"/><line x1="4.2" x2="1.8" y1="11.3" y2="11.3" class="st1"/><rect width="7.6" height="7.5" x="-33.7" y="-6" fill="none"/></svg>